<svg xmlns="http://www.w3.org/2000/svg" width="223" height="134" fill="none" viewBox="0 0 223 134"><mask id="b" width="223" height="135" x="-.747" y="-.408" fill="#000" maskUnits="userSpaceOnUse"><path fill="#fff" d="M-.747-.408h223v135h-223z"/><path d="M56.575 132.841q-14.877 0-25.48-4.788-10.6-4.959-17.27-13.338-6.498-8.379-9.747-19.323Q1 84.276 1 71.965v-9.747q0-17.1 5.985-30.951t18.297-22.06Q37.594 1 56.575 1t31.122 8.208q12.312 8.208 18.297 22.059 5.985 13.85 5.985 30.95v9.748q0 12.312-3.249 23.427-3.078 10.944-9.747 19.323-6.498 8.379-17.1 13.338-10.431 4.788-25.308 4.788m0-25.821q13.851 0 20.52-9.576 6.84-9.747 6.84-30.096 0-21.546-7.011-30.951-6.84-9.576-20.35-9.576-13.85 0-20.69 9.576-6.84 9.405-6.84 30.609 0 20.52 6.669 30.267 6.84 9.747 20.862 9.747m75.359 22.572v-25.65q0-8.037 2.565-14.022 2.736-5.985 8.55-10.602 5.814-4.788 15.39-8.892l20.178-8.721q7.695-3.249 11.286-8.037 3.762-4.789 3.762-12.141 0-7.524-4.617-12.312t-13.509-4.788-13.509 4.959-4.617 13.338h-27.189q0-11.799 5.13-21.204 5.13-9.576 15.219-15.048T175.539 1t24.795 5.3q10.089 5.302 15.219 14.194 5.301 8.892 5.301 20.007v2.052q0 14.364-7.866 23.769-7.866 9.234-24.282 16.416l-20.007 8.72q-5.13 2.224-7.353 4.618-2.052 2.394-2.052 6.498v8.55l-6.669-5.643h68.4v24.111z"/></mask><path fill="#fff" fill-opacity=".21" d="M56.575 132.841q-14.877 0-25.48-4.788-10.6-4.959-17.27-13.338-6.498-8.379-9.747-19.323Q1 84.276 1 71.965v-9.747q0-17.1 5.985-30.951t18.297-22.06Q37.594 1 56.575 1t31.122 8.208q12.312 8.208 18.297 22.059 5.985 13.85 5.985 30.95v9.748q0 12.312-3.249 23.427-3.078 10.944-9.747 19.323-6.498 8.379-17.1 13.338-10.431 4.788-25.308 4.788m0-25.821q13.851 0 20.52-9.576 6.84-9.747 6.84-30.096 0-21.546-7.011-30.951-6.84-9.576-20.35-9.576-13.85 0-20.69 9.576-6.84 9.405-6.84 30.609 0 20.52 6.669 30.267 6.84 9.747 20.862 9.747m75.359 22.572v-25.65q0-8.037 2.565-14.022 2.736-5.985 8.55-10.602 5.814-4.788 15.39-8.892l20.178-8.721q7.695-3.249 11.286-8.037 3.762-4.789 3.762-12.141 0-7.524-4.617-12.312t-13.509-4.788-13.509 4.959-4.617 13.338h-27.189q0-11.799 5.13-21.204 5.13-9.576 15.219-15.048T175.539 1t24.795 5.3q10.089 5.302 15.219 14.194 5.301 8.892 5.301 20.007v2.052q0 14.364-7.866 23.769-7.866 9.234-24.282 16.416l-20.007 8.72q-5.13 2.224-7.353 4.618-2.052 2.394-2.052 6.498v8.55l-6.669-5.643h68.4v24.111z"/><path fill="url(#a)" d="m31.096 128.053-.424.906.012.005zm-17.271-13.338-.79.613.008.01zM4.078 95.392l-.964.267.003.009.002.008zm2.907-64.125-.918-.397zm18.297-22.06-.555-.831zm62.415 0-.56.83.005.003zm18.297 22.06-.918.396zm2.736 64.125-.96-.28-.003.009zm-9.747 19.323-.782-.623-.008.01zm-17.1 13.338.417.909.007-.003zm-4.788-30.61-.819-.574-.002.003zm-.171-61.046-.814.581.006.008.006.009zm-41.04 0 .809.588.005-.007zm-.171 60.876-.825.565.006.01zm20.862 35.568v-1c-9.814 0-18.16-1.58-25.068-4.7l-.411.912-.412.911c7.228 3.264 15.87 4.877 25.89 4.877zm-25.48-4.788.425-.906c-6.942-3.247-12.571-7.601-16.913-13.055l-.782.623-.782.623c4.55 5.717 10.435 10.255 17.63 13.621zm-17.27-13.338.79-.613c-4.25-5.481-7.445-11.809-9.578-18.995l-.96.285-.958.284c2.199 7.406 5.502 13.96 9.916 19.652zM4.078 95.392l.964-.267Q2 84.15 2 71.965H0q0 12.439 3.114 23.694zM1 71.965h1v-9.747H0v9.747zm0-9.747h1c0-11.282 1.974-21.461 5.903-30.555l-.918-.396-.918-.397C2.017 40.245 0 50.7 0 62.218zm5.985-30.951.918.396c3.915-9.06 9.89-16.26 17.934-21.623l-.555-.832-.555-.832c-8.372 5.581-14.595 13.087-18.66 22.494zm18.297-22.06.555.833C33.84 4.705 44.063 2 56.575 2V0C43.779 0 33.14 2.767 24.727 8.376zM56.575 1v1c12.513 0 22.676 2.705 30.562 8.036l.56-.828.56-.829C79.955 2.767 69.37 0 56.575 0zm31.122 8.208-.555.832c8.044 5.363 14.019 12.563 17.934 21.623l.918-.396.918-.397c-4.065-9.407-10.288-16.913-18.66-22.494zm18.297 22.059-.918.396c3.929 9.094 5.903 19.273 5.903 30.555h2c0-11.519-2.016-21.973-6.067-31.348zm5.985 30.95h-1v9.748h2v-9.747zm0 9.748h-1q-.001 12.178-3.209 23.146l.96.28.96.281q3.29-11.26 3.289-23.707zm-3.249 23.427-.963-.271c-2.018 7.176-5.208 13.496-9.566 18.971l.782.623.782.623c4.534-5.697 7.842-12.259 9.928-19.675zm-9.747 19.323-.79-.613c-4.225 5.448-9.794 9.799-16.734 13.045l.424.906.424.906c7.196-3.367 13.027-7.907 17.466-13.631zm-17.1 13.338-.417-.909c-6.79 3.117-15.076 4.697-24.891 4.697v2c10.021 0 18.608-1.612 25.725-4.879zM56.575 107.02v1c9.491 0 16.67-3.3 21.34-10.005l-.82-.571-.82-.572c-4.223 6.063-10.723 9.148-19.7 9.148zm20.52-9.576.819.574c4.735-6.748 7.02-17.029 7.02-30.67h-2c0 13.49-2.273 23.274-6.658 29.521zm6.84-30.096h1c0-14.423-2.337-25.013-7.21-31.549l-.801.598-.802.598c4.476 6.003 6.813 16.047 6.813 30.353zm-7.011-30.951.814-.581c-4.778-6.689-11.89-9.995-21.163-9.995v2c8.738 0 15.193 3.078 19.535 9.157zm-20.35-9.576v-1c-9.49 0-16.721 3.299-21.504 9.995l.814.58.814.582c4.337-6.072 10.9-9.157 19.877-9.157zm-20.69 9.576-.809-.588c-4.75 6.532-7.031 17.001-7.031 31.197h2c0-14.077 2.28-24.013 6.649-30.021zm-6.84 30.609h-1c0 13.75 2.227 24.084 6.844 30.832l.825-.565.825-.565c-4.275-6.249-6.494-16.092-6.494-29.702zm6.669 30.267-.819.574c4.783 6.815 12.073 10.173 21.68 10.173v-2c-9.087 0-15.705-3.14-20.042-9.322zm96.221 32.319h-1v1h1zm2.565-39.672-.91-.416-.005.01-.004.012zm8.55-10.602.622.783.007-.006.007-.005zm15.39-8.892.394.919.003-.001zm20.178-8.721-.389-.922-.008.004zm11.286-8.037-.786-.618-.007.009-.007.009zM162.03 29.386l.732.681zm-4.617 13.338v1h1v-1zm-27.189 0h-1v1h1zm5.13-21.204.878.479.003-.007zm15.219-15.048.477.879zm49.761-.171-.472.882.007.003zm15.219 14.193-.866.5.003.006.004.006zm-2.565 45.828.761.648.006-.007zm-24.282 16.416.399.916h.002zm-20.007 8.72.397.918h.002zm-7.353 4.618-.733-.68-.013.014-.013.015zm-2.052 15.048-.646.763 1.646 1.393v-2.156zm-6.669-5.643v-1h-2.73l2.084 1.763zm68.4 0h1v-1h-1zm0 24.111v1h1v-1zm-89.091 0h1v-25.65h-2v25.65zm0-25.65h1c0-5.254.838-9.788 2.484-13.628l-.919-.394-.919-.394c-1.775 4.14-2.646 8.953-2.646 14.416zm2.565-14.022.909.416c1.751-3.83 4.494-7.242 8.263-10.235l-.622-.783-.622-.783c-3.984 3.163-6.94 6.818-8.838 10.969zm8.55-10.602.636.772c3.78-3.114 8.82-6.033 15.148-8.745l-.394-.92-.394-.918c-6.441 2.76-11.661 5.768-15.632 9.039zm15.39-8.892.397.918 20.178-8.721-.397-.918-.397-.918-20.178 8.72zm20.178-8.721.389.921c5.231-2.209 9.163-4.98 11.697-8.358l-.8-.6-.8-.6c-2.254 3.005-5.847 5.593-10.875 7.715zm11.286-8.037.786.618c2.674-3.403 3.976-7.681 3.976-12.76h-2c0 4.727-1.206 8.542-3.548 11.524zm3.762-12.141h1c0-5.238-1.616-9.603-4.897-13.006l-.72.694-.72.694c2.874 2.98 4.337 6.824 4.337 11.618zm-4.617-12.312.72-.694c-3.324-3.447-8.125-5.094-14.229-5.094v2c5.751 0 9.957 1.544 12.789 4.482zm-13.509-4.788v-1c-6.115 0-10.92 1.71-14.241 5.277l.732.682.732.681c2.834-3.044 7.035-4.64 12.777-4.64zm-13.509 4.959-.732-.682c-3.289 3.533-4.885 8.244-4.885 14.02h2c0-5.396 1.482-9.577 4.349-12.657zm-4.617 13.338v-1h-27.189v2h27.189zm-27.189 0h1c0-7.716 1.676-14.617 5.008-20.725l-.878-.48-.878-.478c-3.508 6.431-5.252 13.667-5.252 21.683zm5.13-21.204.881.472c3.323-6.202 8.25-11.08 14.815-14.641l-.477-.88-.477-.878c-6.887 3.735-12.106 8.888-15.624 15.455zm15.219-15.048.477.879C157.592 3.802 165.739 2 175.539 2V0c-10.037 0-18.534 1.845-25.443 5.593zM175.539 1v1c9.805 0 17.896 1.747 24.323 5.183l.472-.882.471-.882c-6.796-3.633-15.235-5.42-25.266-5.42zm24.795 5.3-.465.886c6.577 3.456 11.502 8.061 14.818 13.808l.866-.5.866-.5c-3.525-6.11-8.746-10.966-15.62-14.578zm15.219 14.194-.859.512c3.435 5.762 5.16 12.251 5.16 19.495h2c0-7.577-1.809-14.425-5.442-20.52zm5.301 20.007h-1v2.052h2V40.5zm0 2.052h-1c0 9.384-2.565 17.067-7.633 23.127l.767.642.767.641c5.419-6.48 8.099-14.642 8.099-24.41zm-7.866 23.769-.761-.649c-5.111 6-13.056 11.395-23.922 16.149l.401.916.401.916c11.022-4.822 19.264-10.37 24.642-16.684zm-24.282 16.416-.4-.917-20.007 8.721.4.917.399.916 20.007-8.72zm-20.007 8.72-.398-.917c-3.469 1.504-6.068 3.11-7.688 4.854l.733.68.733.681c1.343-1.447 3.647-2.919 7.017-4.38zm-7.353 4.618-.759-.651c-1.566 1.826-2.293 4.247-2.293 7.149h2c0-2.571.64-4.481 1.811-5.847zm-2.052 6.498h-1v8.55h2v-8.55zm0 8.55.646-.764-6.669-5.643-.646.764-.646.763 6.669 5.643zm-6.669-5.643v1h68.4v-2h-68.4zm68.4 0h-1v24.111h2v-24.111zm0 24.111v-1h-89.091v2h89.091z" mask="url(#b)"/><defs><linearGradient id="a" x1="26.675" x2="79.466" y1="129.592" y2="-20.449" gradientUnits="userSpaceOnUse"><stop stop-color="#585858"/><stop offset="1" stop-color="#869f9b"/></linearGradient></defs></svg>