<svg xmlns="http://www.w3.org/2000/svg" width="223" height="134" fill="none" viewBox="0 0 223 134"><mask id="b" width="224" height="135" x="-.747" y="-.408" fill="#000" maskUnits="userSpaceOnUse"><path fill="#fff" d="M-.747-.408h224v135h-224z"/><path d="M56.575 132.841q-14.877 0-25.48-4.788-10.6-4.959-17.27-13.338-6.498-8.379-9.747-19.323Q1 84.276 1 71.965v-9.747q0-17.1 5.985-30.951t18.297-22.06Q37.594 1 56.575 1t31.122 8.208q12.312 8.208 18.297 22.059 5.985 13.85 5.985 30.95v9.748q0 12.312-3.249 23.427-3.078 10.944-9.747 19.323-6.498 8.379-17.1 13.338-10.431 4.788-25.308 4.788m0-25.821q13.851 0 20.52-9.576 6.84-9.747 6.84-30.096 0-21.546-7.011-30.951-6.84-9.576-20.35-9.576-13.85 0-20.69 9.576-6.84 9.405-6.84 30.609 0 20.52 6.669 30.267 6.84 9.747 20.862 9.747m118.109 25.821q-14.535 0-25.308-5.301-10.602-5.472-16.245-14.706t-5.643-20.862h27.018q0 7.866 5.301 12.825 5.301 4.788 14.877 4.788 6.327 0 10.773-2.394t6.84-6.498q2.394-4.275 2.394-9.576 0-8.208-5.301-13.51-5.13-5.3-14.706-5.3-5.13 0-9.063 1.539-3.762 1.539-6.498 3.762l-12.654-21.375 37.791-24.624-1.539-2.907h-50.103V4.762h84.132v25.992l-43.605 27.702-13.68-3.762a47 47 0 0 1 7.182-1.54q3.933-.683 8.379-.683 14.535 0 24.966 4.788t16.074 13.509q5.814 8.55 5.814 20.007v2.052q0 11.457-5.814 20.52-5.643 9.063-16.245 14.364-10.431 5.13-25.137 5.13"/></mask><path fill="#fff" fill-opacity=".21" d="M56.575 132.841q-14.877 0-25.48-4.788-10.6-4.959-17.27-13.338-6.498-8.379-9.747-19.323Q1 84.276 1 71.965v-9.747q0-17.1 5.985-30.951t18.297-22.06Q37.594 1 56.575 1t31.122 8.208q12.312 8.208 18.297 22.059 5.985 13.85 5.985 30.95v9.748q0 12.312-3.249 23.427-3.078 10.944-9.747 19.323-6.498 8.379-17.1 13.338-10.431 4.788-25.308 4.788m0-25.821q13.851 0 20.52-9.576 6.84-9.747 6.84-30.096 0-21.546-7.011-30.951-6.84-9.576-20.35-9.576-13.85 0-20.69 9.576-6.84 9.405-6.84 30.609 0 20.52 6.669 30.267 6.84 9.747 20.862 9.747m118.109 25.821q-14.535 0-25.308-5.301-10.602-5.472-16.245-14.706t-5.643-20.862h27.018q0 7.866 5.301 12.825 5.301 4.788 14.877 4.788 6.327 0 10.773-2.394t6.84-6.498q2.394-4.275 2.394-9.576 0-8.208-5.301-13.51-5.13-5.3-14.706-5.3-5.13 0-9.063 1.539-3.762 1.539-6.498 3.762l-12.654-21.375 37.791-24.624-1.539-2.907h-50.103V4.762h84.132v25.992l-43.605 27.702-13.68-3.762a47 47 0 0 1 7.182-1.54q3.933-.683 8.379-.683 14.535 0 24.966 4.788t16.074 13.509q5.814 8.55 5.814 20.007v2.052q0 11.457-5.814 20.52-5.643 9.063-16.245 14.364-10.431 5.13-25.137 5.13"/><path fill="url(#a)" d="m31.096 128.053-.424.906.012.005zm-17.271-13.338-.79.613.008.01zM4.078 95.392l-.964.267.003.009.002.008zm2.907-64.125-.918-.397zm18.297-22.06-.555-.831zm62.415 0-.56.83.005.003zm18.297 22.06-.918.396zm2.736 64.125-.96-.28-.003.009zm-9.747 19.323-.782-.623-.008.01zm-17.1 13.338.417.909.007-.003zm-4.788-30.61-.819-.574-.002.003zm-.171-61.046-.814.581.006.008.006.009zm-41.04 0 .809.588.005-.007zm-.171 60.876-.825.565.006.01zm20.862 35.568v-1c-9.814 0-18.16-1.58-25.068-4.7l-.411.912-.412.911c7.228 3.264 15.87 4.877 25.89 4.877zm-25.48-4.788.425-.906c-6.942-3.247-12.571-7.601-16.913-13.055l-.782.623-.782.623c4.55 5.717 10.435 10.255 17.63 13.621zm-17.27-13.338.79-.613c-4.25-5.481-7.445-11.809-9.578-18.995l-.96.285-.958.284c2.199 7.406 5.502 13.96 9.916 19.652zM4.078 95.392l.964-.267Q2 84.15 2 71.965H0q0 12.439 3.114 23.694zM1 71.965h1v-9.747H0v9.747zm0-9.747h1c0-11.282 1.974-21.461 5.903-30.555l-.918-.396-.918-.397C2.017 40.245 0 50.7 0 62.218zm5.985-30.951.918.396c3.915-9.06 9.89-16.26 17.934-21.623l-.555-.832-.555-.832c-8.372 5.581-14.595 13.087-18.66 22.494zm18.297-22.06.555.833C33.84 4.705 44.063 2 56.575 2V0C43.779 0 33.14 2.767 24.727 8.376zM56.575 1v1c12.513 0 22.676 2.705 30.562 8.036l.56-.828.56-.829C79.955 2.767 69.37 0 56.575 0zm31.122 8.208-.555.832c8.044 5.363 14.019 12.563 17.934 21.623l.918-.396.918-.397c-4.065-9.407-10.288-16.913-18.66-22.494zm18.297 22.059-.918.396c3.929 9.094 5.903 19.273 5.903 30.555h2c0-11.519-2.016-21.973-6.067-31.348zm5.985 30.95h-1v9.748h2v-9.747zm0 9.748h-1q-.001 12.178-3.209 23.146l.96.28.96.281q3.29-11.26 3.289-23.707zm-3.249 23.427-.963-.271c-2.018 7.176-5.208 13.496-9.566 18.971l.782.623.782.623c4.534-5.697 7.842-12.259 9.928-19.675zm-9.747 19.323-.79-.613c-4.225 5.448-9.794 9.799-16.734 13.045l.424.906.424.906c7.196-3.367 13.027-7.907 17.466-13.631zm-17.1 13.338-.417-.909c-6.79 3.117-15.076 4.697-24.891 4.697v2c10.021 0 18.608-1.612 25.725-4.879zM56.575 107.02v1c9.491 0 16.67-3.3 21.34-10.005l-.82-.571-.82-.572c-4.223 6.063-10.723 9.148-19.7 9.148zm20.52-9.576.819.574c4.735-6.748 7.02-17.029 7.02-30.67h-2c0 13.49-2.273 23.274-6.658 29.521zm6.84-30.096h1c0-14.423-2.337-25.013-7.21-31.549l-.801.598-.802.598c4.476 6.003 6.813 16.047 6.813 30.353zm-7.011-30.951.814-.581c-4.778-6.689-11.89-9.995-21.163-9.995v2c8.738 0 15.193 3.078 19.535 9.157zm-20.35-9.576v-1c-9.49 0-16.721 3.299-21.504 9.995l.814.58.814.582c4.337-6.072 10.9-9.157 19.877-9.157zm-20.69 9.576-.809-.588c-4.75 6.532-7.031 17.001-7.031 31.197h2c0-14.077 2.28-24.013 6.649-30.021zm-6.84 30.609h-1c0 13.75 2.227 24.084 6.844 30.832l.825-.565.825-.565c-4.275-6.249-6.494-16.092-6.494-29.702zm6.669 30.267-.819.574c4.783 6.815 12.073 10.173 21.68 10.173v-2c-9.087 0-15.705-3.14-20.042-9.322zm113.663 30.267-.459.888.009.005.008.004zm-16.245-14.706-.853.521zm-5.643-20.862v-1h-1v1zm27.018 0h1v-1h-1zm5.301 12.825-.683.73.006.006.007.006zm25.65 2.394.474.88zm6.84-6.498.864.504.004-.008.004-.008zm-2.907-23.085-.719.695.006.006.006.006zm-23.769-3.762-.365-.931-.007.002-.007.003zm-6.498 3.762-.861.51.591.997.9-.731zm-12.654-21.375-.546-.838-.803.523.488.824zm37.791-24.624.546.838.765-.499-.427-.807zm-1.539-2.907.884-.468-.282-.532h-.602zm-50.103 0h-1v1h1zm0-23.94v-1h-1v1zm84.132 0h1v-1h-1zm0 25.992.536.844.464-.295v-.55zm-43.605 27.702-.265.964.427.117.374-.237zm-13.68-3.762-.288-.958-3.332 1 3.355.922zm7.182-1.54.135.992.018-.003.018-.003zm33.345 4.105-.417.909zm16.074 13.509-.84.543.006.01.007.01zm0 42.579-.842-.54-.007.011zm-16.245 14.364.441.897.006-.003zm-25.137 5.13v-1c-9.569 0-17.848-1.745-24.867-5.198l-.441.897-.442.897c7.346 3.614 15.939 5.404 25.75 5.404zm-25.308-5.301.458-.889c-6.922-3.573-12.193-8.355-15.85-14.339l-.853.522-.853.521c3.867 6.328 9.426 11.35 16.639 15.073zm-16.245-14.706.853-.522c-3.659-5.987-5.496-12.758-5.496-20.34h-2c0 7.922 1.924 15.059 5.79 21.383zm-5.643-20.862v1h27.018v-2h-27.018zm27.018 0h-1c0 5.495 1.863 10.043 5.618 13.555l.683-.73.683-.73c-3.314-3.1-4.984-7.102-4.984-12.095zm5.301 12.825-.67.742c3.772 3.408 9.001 5.046 15.547 5.046v-2c-6.222 0-10.912-1.554-14.207-4.53zm14.877 4.788v1c4.342 0 8.105-.822 11.247-2.514l-.474-.88-.474-.881c-2.786 1.5-6.206 2.275-10.299 2.275zm10.773-2.394.474.88c3.115-1.677 5.535-3.969 7.23-6.874l-.864-.504-.864-.504c-1.497 2.567-3.638 4.607-6.45 6.121zm6.84-6.498.872.488c1.687-3.011 2.522-6.373 2.522-10.064h-2c0 3.377-.761 6.399-2.267 9.087zm2.394-9.576h1c0-5.71-1.854-10.476-5.594-14.216l-.707.707-.707.707c3.327 3.328 5.008 7.567 5.008 12.802zm-5.301-13.51.718-.695c-3.66-3.782-8.854-5.605-15.424-5.605v2c6.198 0 10.807 1.71 13.987 4.996zm-14.706-5.3v-1c-3.519 0-6.667.528-9.428 1.608l.365.93.364.932c2.484-.972 5.378-1.47 8.699-1.47zm-9.063 1.539-.379-.926c-2.585 1.058-4.839 2.36-6.75 3.912l.631.776.63.776c1.738-1.412 3.816-2.618 6.246-3.613zm-6.498 3.762.86-.51-12.654-21.375-.86.51-.861.51 12.654 21.374zm-12.654-21.375.546.838 37.791-24.624-.546-.838-.546-.838-37.791 24.624zm37.791-24.624.884-.468-1.539-2.907-.884.468-.884.468 1.539 2.907zm-1.539-2.907v-1h-50.103v2h50.103zm-50.103 0h1V4.762h-2v23.94zm0-23.94v1h84.132v-2h-84.132zm84.132 0h-1v25.992h2V4.762zm0 25.992-.536-.844-43.605 27.702.536.844.536.844 43.605-27.702zm-43.605 27.702.265-.964-13.68-3.762-.265.964-.265.964 13.68 3.762zm-13.68-3.762.287.958a46 46 0 0 1 7.03-1.506l-.135-.991-.135-.991a48 48 0 0 0-7.335 1.572zm7.182-1.54.171.986q3.84-.669 8.208-.67v-2q-4.523 0-8.551.7zm8.379-.683v1c9.583 0 17.756 1.579 24.549 4.697l.417-.91.417-.908c-7.115-3.266-15.586-4.88-25.383-4.88zm24.966 4.788-.417.909c6.8 3.121 12.003 7.505 15.651 13.143l.84-.543.839-.543c-3.875-5.99-9.388-10.612-16.496-13.875zm16.074 13.509-.827.562c3.751 5.517 5.641 11.985 5.641 19.445h2c0-7.816-1.986-14.686-5.987-20.57zm5.814 20.007h-1v2.052h2v-2.052zm0 2.052h-1c0 7.459-1.89 14.109-5.656 19.98l.842.54.842.54c3.986-6.214 5.972-13.244 5.972-21.06zm-5.814 20.52-.849-.529c-3.654 5.869-8.922 10.538-15.843 13.998l.447.895.447.894c7.214-3.607 12.777-8.514 16.647-14.73zm-16.245 14.364-.441-.898c-6.786 3.337-15.006 5.028-24.696 5.028v2c9.917 0 18.455-1.73 25.578-5.233z" mask="url(#b)"/><defs><linearGradient id="a" x1="26.675" x2="79.466" y1="129.592" y2="-20.449" gradientUnits="userSpaceOnUse"><stop stop-color="#585858"/><stop offset="1" stop-color="#869f9b"/></linearGradient></defs></svg>