<svg xmlns="http://www.w3.org/2000/svg" width="234" height="135" fill="none" viewBox="0 0 234 135"><mask id="b" width="235" height="135" x="-.747" y="-.186" fill="#000" maskUnits="userSpaceOnUse"><path fill="#fff" d="M-.747-.186h235v135h-235z"/><path d="M56.575 133.063q-14.877 0-25.48-4.788-10.6-4.959-17.27-13.338-6.498-8.38-9.747-19.322Q1 84.499 1 72.188V62.44q0-17.1 5.985-30.95Q12.97 17.637 25.282 9.43t31.293-8.208T87.697 9.43q12.312 8.208 18.297 22.06 5.985 13.85 5.985 30.95v9.748q0 12.31-3.249 23.427-3.078 10.943-9.747 19.322-6.498 8.379-17.1 13.338-10.431 4.788-25.308 4.788m0-25.821q13.851 0 20.52-9.576 6.84-9.747 6.84-30.096 0-21.545-7.011-30.95-6.84-9.576-20.35-9.576-13.85 0-20.69 9.576-6.84 9.405-6.84 30.608 0 20.52 6.669 30.268 6.84 9.746 20.862 9.746m70.742-1.368v-29.24l47.367-75.24 21.717 14.192-40.527 64.468 2.394 3.59h74.727v22.23zm65.493 23.94V39.868h25.821v89.946z"/></mask><path fill="#fff" fill-opacity=".21" d="M56.575 133.063q-14.877 0-25.48-4.788-10.6-4.959-17.27-13.338-6.498-8.38-9.747-19.322Q1 84.499 1 72.188V62.44q0-17.1 5.985-30.95Q12.97 17.637 25.282 9.43t31.293-8.208T87.697 9.43q12.312 8.208 18.297 22.06 5.985 13.85 5.985 30.95v9.748q0 12.31-3.249 23.427-3.078 10.943-9.747 19.322-6.498 8.379-17.1 13.338-10.431 4.788-25.308 4.788m0-25.821q13.851 0 20.52-9.576 6.84-9.747 6.84-30.096 0-21.545-7.011-30.95-6.84-9.576-20.35-9.576-13.85 0-20.69 9.576-6.84 9.405-6.84 30.608 0 20.52 6.669 30.268 6.84 9.746 20.862 9.746m70.742-1.368v-29.24l47.367-75.24 21.717 14.192-40.527 64.468 2.394 3.59h74.727v22.23zm65.493 23.94V39.868h25.821v89.946z"/><path fill="url(#a)" d="m31.096 128.275-.424.906.012.006zm-17.271-13.338-.79.613.008.01zM4.078 95.615l-.964.266.003.01.002.008zm2.907-64.126-.918-.396zM25.282 9.43l-.555-.832zm62.415 0-.56.829.005.003zm18.297 22.06-.918.396zm2.736 64.125-.96-.281-.003.01zm-9.747 19.322-.782-.622-.008.01zm-17.1 13.338.417.909.007-.003zm-4.788-30.609-.819-.574-.002.003zm-.171-61.047-.814.582.006.008.006.008zm-41.04 0 .809.589.005-.007zm-.171 60.877-.825.564.006.01zm20.862 35.567v-1c-9.814 0-18.16-1.579-25.068-4.699l-.411.911-.412.912c7.228 3.264 15.87 4.876 25.89 4.876zm-25.48-4.788.425-.905c-6.942-3.247-12.571-7.601-16.913-13.055l-.782.622-.782.623c4.55 5.718 10.435 10.256 17.63 13.621zm-17.27-13.338.79-.612c-4.25-5.481-7.445-11.809-9.578-18.995l-.96.285-.958.284c2.199 7.406 5.502 13.96 9.916 19.651zM4.078 95.615l.964-.267Q2 84.372 2 72.188H0Q0 84.626 3.114 95.88zM1 72.188h1V62.44H0v9.748zm0-9.748h1c0-11.28 1.974-21.46 5.903-30.554l-.918-.397-.918-.396C2.017 40.468 0 50.923 0 62.44zm5.985-30.95.918.396c3.915-9.06 9.89-16.26 17.934-21.623l-.555-.833-.555-.832c-8.372 5.582-14.595 13.087-18.66 22.495zM25.282 9.43l.555.832c8.003-5.335 18.226-8.04 30.738-8.04v-2C43.779.222 33.14 2.99 24.727 8.598zm31.293-8.208v1c12.513 0 22.676 2.705 30.562 8.037l.56-.829.56-.828C79.955 2.989 69.37.222 56.575.222zM87.697 9.43l-.555.832c8.044 5.363 14.019 12.564 17.934 21.624l.918-.397.918-.396c-4.065-9.408-10.288-16.913-18.66-22.495zm18.297 22.06-.918.396c3.929 9.093 5.903 19.273 5.903 30.554h2c0-11.518-2.016-21.972-6.067-31.347zm5.985 30.95h-1v9.748h2V62.44zm0 9.748h-1q-.001 12.177-3.209 23.146l.96.28.96.281q3.29-11.261 3.289-23.707zm-3.249 23.427-.963-.271c-2.018 7.176-5.208 13.495-9.566 18.971l.782.622.782.623c4.534-5.696 7.842-12.259 9.928-19.675zm-9.747 19.322-.79-.612c-4.225 5.448-9.794 9.799-16.734 13.045l.424.905.424.906c7.196-3.366 13.027-7.907 17.466-13.631zm-17.1 13.338-.417-.908c-6.79 3.117-15.076 4.696-24.891 4.696v2c10.021 0 18.608-1.612 25.725-4.879zm-25.308-21.033v1c9.491 0 16.67-3.299 21.34-10.004l-.82-.572-.82-.571c-4.223 6.063-10.723 9.147-19.7 9.147zm20.52-9.576.819.575c4.735-6.748 7.02-17.03 7.02-30.67h-2c0 13.49-2.273 23.273-6.658 29.521zm6.84-30.096h1c0-14.422-2.337-25.012-7.21-31.548l-.801.597-.802.598c4.476 6.004 6.813 16.048 6.813 30.353zm-7.011-30.95.814-.582c-4.778-6.688-11.89-9.994-21.163-9.994v2c8.738 0 15.193 3.077 19.535 9.157zm-20.35-9.576v-1c-9.49 0-16.721 3.299-21.504 9.994l.814.581.814.582c4.337-6.073 10.9-9.157 19.877-9.157zm-20.69 9.575-.809-.588c-4.75 6.533-7.031 17.002-7.031 31.197h2c0-14.076 2.28-24.013 6.649-30.02zm-6.84 30.61h-1c0 13.75 2.227 24.084 6.844 30.831l.825-.564.825-.565c-4.275-6.25-6.494-16.093-6.494-29.703zm6.669 30.267-.819.574c4.783 6.815 12.073 10.172 21.68 10.172v-2c-9.087 0-15.705-3.14-20.042-9.321zm91.604 8.378h-1v1h1zm0-29.24-.846-.533-.154.244v.288zm47.367-75.24.547-.838-.852-.556-.541.86zm21.717 14.192.846.533.523-.832-.822-.538zm-40.527 64.468-.847-.533-.344.548.359.54zm2.394 3.59-.832.555.297.445h.535zm74.727 0h1v-1h-1zm0 22.23v1h1v-1zm-40.185 23.94h-1v1h1zm0-89.945v-1h-1v1zm25.821 0h1v-1h-1zm0 89.945v1h1v-1zm-91.314-23.94h1v-29.24h-2v29.24zm0-29.24.846.532 47.367-75.24-.846-.533-.846-.532-47.367 75.24zm47.367-75.24-.547.837 21.717 14.193.547-.838.547-.837L175.231.556zm21.717 14.192-.847-.532-40.527 64.467.847.532.846.533 40.527-64.467zm-40.527 64.468-.832.554 2.394 3.591.832-.555.832-.554-2.394-3.591zm2.394 3.59v1h74.727v-2h-74.727zm74.727 0h-1v22.23h2v-22.23zm0 22.23v-1H127.317v2h105.678zm-40.185 23.94h1V39.869h-2v89.945zm0-89.945v1h25.821v-2H192.81zm25.821 0h-1v89.945h2V39.869zm0 89.945v-1H192.81v2h25.821z" mask="url(#b)"/><defs><linearGradient id="a" x1="27.712" x2="79.32" y1="129.814" y2="-21.16" gradientUnits="userSpaceOnUse"><stop stop-color="#585858"/><stop offset="1" stop-color="#869f9b"/></linearGradient></defs></svg>