<svg xmlns="http://www.w3.org/2000/svg" width="181" height="134" fill="none" viewBox="0 0 181 134"><mask id="b" width="182" height="135" x="-.747" y="-.408" fill="#000" maskUnits="userSpaceOnUse"><path fill="#fff" d="M-.747-.408h182v135h-182z"/><path d="M56.575 132.841q-14.877 0-25.48-4.788-10.6-4.959-17.27-13.338-6.498-8.379-9.747-19.323Q1 84.276 1 71.965v-9.747q0-17.1 5.985-30.951t18.297-22.06Q37.594 1 56.575 1t31.122 8.208q12.312 8.208 18.297 22.059 5.985 13.85 5.985 30.95v9.748q0 12.312-3.249 23.427-3.078 10.944-9.747 19.323-6.498 8.379-17.1 13.338-10.431 4.788-25.308 4.788m0-25.821q13.851 0 20.52-9.576 6.84-9.747 6.84-30.096 0-21.546-7.011-30.951-6.84-9.576-20.35-9.576-13.85 0-20.69 9.576-6.84 9.405-6.84 30.609 0 20.52 6.669 30.267 6.84 9.747 20.862 9.747m95.195 22.572V23.23l7.524 5.814h-31.977V4.762h52.326v124.83z"/></mask><path fill="#fff" fill-opacity=".21" d="M56.575 132.841q-14.877 0-25.48-4.788-10.6-4.959-17.27-13.338-6.498-8.379-9.747-19.323Q1 84.276 1 71.965v-9.747q0-17.1 5.985-30.951t18.297-22.06Q37.594 1 56.575 1t31.122 8.208q12.312 8.208 18.297 22.059 5.985 13.85 5.985 30.95v9.748q0 12.312-3.249 23.427-3.078 10.944-9.747 19.323-6.498 8.379-17.1 13.338-10.431 4.788-25.308 4.788m0-25.821q13.851 0 20.52-9.576 6.84-9.747 6.84-30.096 0-21.546-7.011-30.951-6.84-9.576-20.35-9.576-13.85 0-20.69 9.576-6.84 9.405-6.84 30.609 0 20.52 6.669 30.267 6.84 9.747 20.862 9.747m95.195 22.572V23.23l7.524 5.814h-31.977V4.762h52.326v124.83z"/><path fill="url(#a)" d="m31.096 128.053-.424.906.012.005zm-17.271-13.338-.79.613.008.01zM4.078 95.392l-.964.267.003.009.002.008zm2.907-64.125-.918-.397zm18.297-22.06-.555-.831zm62.415 0-.56.83.005.003zm18.297 22.06-.918.396zm2.736 64.125-.96-.28-.003.009zm-9.747 19.323-.782-.623-.008.01zm-17.1 13.338.417.909.007-.003zm-4.788-30.61-.819-.574-.002.003zm-.171-61.046-.814.581.006.008.006.009zm-41.04 0 .809.588.005-.007zm-.171 60.876-.825.565.006.01zm20.862 35.568v-1c-9.814 0-18.16-1.58-25.068-4.7l-.411.912-.412.911c7.228 3.264 15.87 4.877 25.89 4.877zm-25.48-4.788.425-.906c-6.942-3.247-12.571-7.601-16.913-13.055l-.782.623-.782.623c4.55 5.717 10.435 10.255 17.63 13.621zm-17.27-13.338.79-.613c-4.25-5.481-7.445-11.809-9.578-18.995l-.96.285-.958.284c2.199 7.406 5.502 13.96 9.916 19.652zM4.078 95.392l.964-.267Q2 84.15 2 71.965H0q0 12.439 3.114 23.694zM1 71.965h1v-9.747H0v9.747zm0-9.747h1c0-11.282 1.974-21.461 5.903-30.555l-.918-.396-.918-.397C2.017 40.245 0 50.7 0 62.218zm5.985-30.951.918.396c3.915-9.06 9.89-16.26 17.934-21.623l-.555-.832-.555-.832c-8.372 5.581-14.595 13.087-18.66 22.494zm18.297-22.06.555.833C33.84 4.705 44.063 2 56.575 2V0C43.779 0 33.14 2.767 24.727 8.376zM56.575 1v1c12.513 0 22.676 2.705 30.562 8.036l.56-.828.56-.829C79.955 2.767 69.37 0 56.575 0zm31.122 8.208-.555.832c8.044 5.363 14.019 12.563 17.934 21.623l.918-.396.918-.397c-4.065-9.407-10.288-16.913-18.66-22.494zm18.297 22.059-.918.396c3.929 9.094 5.903 19.273 5.903 30.555h2c0-11.519-2.016-21.973-6.067-31.348zm5.985 30.95h-1v9.748h2v-9.747zm0 9.748h-1q-.001 12.178-3.209 23.146l.96.28.96.281q3.29-11.26 3.289-23.707zm-3.249 23.427-.963-.271c-2.018 7.176-5.208 13.496-9.566 18.971l.782.623.782.623c4.534-5.697 7.842-12.259 9.928-19.675zm-9.747 19.323-.79-.613c-4.225 5.448-9.794 9.799-16.734 13.045l.424.906.424.906c7.196-3.367 13.027-7.907 17.466-13.631zm-17.1 13.338-.417-.909c-6.79 3.117-15.076 4.697-24.891 4.697v2c10.021 0 18.608-1.612 25.725-4.879zM56.575 107.02v1c9.491 0 16.67-3.3 21.34-10.005l-.82-.571-.82-.572c-4.223 6.063-10.723 9.148-19.7 9.148zm20.52-9.576.819.574c4.735-6.748 7.02-17.029 7.02-30.67h-2c0 13.49-2.273 23.274-6.658 29.521zm6.84-30.096h1c0-14.423-2.337-25.013-7.21-31.549l-.801.598-.802.598c4.476 6.003 6.813 16.047 6.813 30.353zm-7.011-30.951.814-.581c-4.778-6.689-11.89-9.995-21.163-9.995v2c8.738 0 15.193 3.078 19.535 9.157zm-20.35-9.576v-1c-9.49 0-16.721 3.299-21.504 9.995l.814.58.814.582c4.337-6.072 10.9-9.157 19.877-9.157zm-20.69 9.576-.809-.588c-4.75 6.532-7.031 17.001-7.031 31.197h2c0-14.077 2.28-24.013 6.649-30.021zm-6.84 30.609h-1c0 13.75 2.227 24.084 6.844 30.832l.825-.565.825-.565c-4.275-6.249-6.494-16.092-6.494-29.702zm6.669 30.267-.819.574c4.783 6.815 12.073 10.173 21.68 10.173v-2c-9.087 0-15.705-3.14-20.042-9.322zm116.057 32.319h-1v1h1zm0-106.362.611-.791-1.611-1.246v2.037zm7.524 5.814v1h2.929l-2.318-1.791zm-31.977 0h-1v1h1zm0-24.282v-1h-1v1zm52.326 0h1v-1h-1zm0 124.83v1h1v-1zm-27.873 0h1V23.23h-2v106.362zm0-106.362-.612.791 7.524 5.814.612-.791.611-.791-7.524-5.814zm7.524 5.814v-1h-31.977v2h31.977zm-31.977 0h1V4.762h-2v24.282zm0-24.282v1h52.326v-2h-52.326zm52.326 0h-1v124.83h2V4.762zm0 124.83v-1H151.77v2h27.873z" mask="url(#b)"/><defs><linearGradient id="a" x1="21.488" x2="80.897" y1="129.592" y2="-14.534" gradientUnits="userSpaceOnUse"><stop stop-color="#585858"/><stop offset="1" stop-color="#869f9b"/></linearGradient></defs></svg>